<?xml version="1.0" encoding="UTF-8" standalone="no"?>
<!-- Generator: Adobe Illustrator 19.2.1, SVG Export Plug-In . SVG Version: 6.00 Build 0)  -->

<svg
   xmlnsDc="http://purl.org/dc/elements/1.1/"
   xmlnsCc="http://creativecommons.org/ns#"
   xmlnsRdf="http://www.w3.org/1999/02/22-rdf-syntax-ns#"
   xmlnsSvg="http://www.w3.org/2000/svg"
   xmlns="http://www.w3.org/2000/svg"
   xmlnsSodipodi="http://sodipodi.sourceforge.net/DTD/sodipodi-0.dtd"
   xmlnsInkscape="http://www.inkscape.org/namespaces/inkscape"
   version="1.1"
   id="layer"
   x="0px"
   y="0px"
   viewBox="0 0 652 652"
   style="enable-background:new 0 0 652 652;"
   xmlSpace="preserve"
   sodipodiDocname="mdn-web-docs-vector-logo.svg"
   inkscapeVersion="0.92.4 (f8dce91, 2019-08-02)"><metadata
   id="metadata17"><rdfRDF><ccWork
       rdfAbout=""><dcFormat>image/svg+xml</dcFormat><dcType
         rdfResource="http://purl.org/dc/dcmitype/StillImage" /><dcTitle></dcTitle></ccWork></rdfRDF></metadata><defs
   id="defs15" /><sodipodiNamedview
   pagecolor="#ffffff"
   bordercolor="#666666"
   borderopacity="1"
   objecttolerance="10"
   gridtolerance="10"
   guidetolerance="10"
   inkscapePageopacity="0"
   inkscapePageshadow="2"
   inkscapeWindow-width="1920"
   inkscapeWindow-height="1004"
   id="namedview13"
   showgrid="false"
   inkscapeZoom="1.2622699"
   inkscapeCx="291.93439"
   inkscapeCy="326"
   inkscapeWindow-x="0"
   inkscapeWindow-y="0"
   inkscapeWindow-maximized="1"
   inkscapeCurrent-layer="layer" />
<path
   id="path10"
   d="M 5.4477521,4.272124 V 649.13299 H 648.57113 V 4.272124 Z m 665.6185679,0 v 0.039231 c 1.09385,0.3153198 2.18637,0.7867793 3.26682,1.3313557 0.42891,-0.4927423 0.86722,-0.9349747 1.31818,-1.3696551 z M 296.87259,138.0658 c 12.78548,0.12946 21.14834,2.96916 34.29202,6.95356 l 11.73952,3.4289 3.91636,0.98651 14.67202,4.40585 c 9.78134,2.94233 20.04984,2.94998 29.83119,0.49804 13.20481,-3.43272 27.38585,-1.47117 39.61253,4.90388 10.75948,6.37505 18.09549,17.16169 19.56269,29.91179 1.4672,11.27894 7.82317,21.08862 17.6045,26.48289 14.67202,7.84622 29.34976,14.22127 44.99991,19.61554 11.24855,4.4135 22.00421,8.82317 32.76369,13.23667 5.37974,1.96155 10.27422,5.39427 13.6977,9.80777 2.9344,3.92311 4.88876,8.33278 5.37783,13.23666 0.97813,9.31738 1.95627,19.12707 2.44533,28.93484 0.48907,13.24049 -2.45105,26.97136 -8.31986,39.23108 -1.95627,4.41349 -4.88304,8.83273 -6.83931,13.24622 -2.93441,6.86544 -9.78135,10.78855 -17.11736,9.80777 -2.44533,0 -5.37974,0.98078 -7.336,2.45195 -6.35788,4.41349 -13.21245,8.82508 -20.05939,12.74819 -9.29228,4.90388 -20.53701,5.38853 -30.31835,1.46542 -16.62828,-5.88466 -33.74563,-9.30973 -51.35205,-9.30973 -17.60642,-0.98077 -34.23853,6.86162 -45.48707,20.59249 -4.40161,6.37506 -7.82317,13.23667 -10.26851,20.5925 -6.35787,14.71165 -11.24281,102.98921 -11.24281,125.54709 0,0 -84.61627,-16.67321 -164.33422,-98.07769 l 20.54655,-54.44077 h -65.04976 l 46.94854,-50.0158 h -80.69609 l 46.95809,-50.01581 H 86.630998 l 85.586762,-90.72187 c 25.92056,-25.99059 58.68998,-44.1407 94.88095,-52.47731 12.83802,-2.20675 22.10259,-3.10421 29.77388,-3.02663 z"
   inkscapeConnector-curvature="0"
   style="stroke-width:4.89727402" />
</svg>